<?xml version="1.0" encoding="iso-8859-1"?>
<!-- Generator: Adobe Illustrator 19.0.0, SVG Export Plug-In . SVG Version: 6.00 Build 0)  -->
<svg version="1.1" id="Layer_1" xmlns="http://www.w3.org/2000/svg" xmlns:xlink="http://www.w3.org/1999/xlink" x="0px" y="0px"
	 viewBox="0 0 512 512" style="enable-background:new 0 0 512 512;" xml:space="preserve">
<rect x="274.808" y="76.758" style="fill:#FFFFFF;" width="26.122" height="15.673"/>
<path style="fill:#FF9B4B;" d="M430.132,442.253c0.996-1.599,1.581-3.475,1.581-5.487V217.071c0-5.747-4.702-10.449-10.449-10.449
	H273.565v235.631H430.132z"/>
<rect x="274.808" y="145.073" style="fill:#FFFFFF;" width="26.122" height="15.673"/>
<path style="fill:#EF4545;" d="M274.137,442.253c0.996-1.599,1.581-3.475,1.581-5.487V67.397c0-5.747-4.702-10.449-10.449-10.449
	H90.734c-5.747,0-10.449,4.702-10.449,10.449v369.368c0,2.011,0.586,3.889,1.581,5.487L274.137,442.253L274.137,442.253z"/>
<path style="opacity:0.1;enable-background:new    ;" d="M102.936,442.253c-0.996-1.599-1.581-3.475-1.581-5.487V67.397
	c0-5.747,4.702-10.449,10.449-10.449h-21.07c-5.747,0-10.449,4.702-10.449,10.449v369.368c0,2.011,0.586,3.889,1.581,5.487
	L102.936,442.253L102.936,442.253z"/>
<path style="fill:#91CFE5;" d="M215.842,442.253c0.004-0.089,0.026-0.172,0.026-0.262v-89.125c0-2.873-2.351-5.224-5.224-5.224
	H145.36c-2.873,0-5.224,2.351-5.224,5.224v89.125c0,0.09,0.022,0.174,0.026,0.262L215.842,442.253L215.842,442.253z"/>
<rect x="170.162" y="347.637" style="fill:#0184B8;" width="15.673" height="94.615"/>
<path style="opacity:0.1;enable-background:new    ;" d="M154.791,442.253c-0.004-0.089-0.026-0.172-0.026-0.262v-89.125
	c0-2.873,2.351-5.224,5.224-5.224h-14.629c-2.873,0-5.224,2.351-5.224,5.224v89.125c0,0.09,0.022,0.174,0.026,0.262L154.791,442.253
	L154.791,442.253z"/>
<path style="fill:#FFFFFF;" d="M139.004,110.007c0,1.724-1.411,3.135-3.135,3.135h-20.473c-1.724,0-3.135-1.411-3.135-3.135V89.832
	c0-1.724,1.411-3.135,3.135-3.135h20.473c1.724,0,3.135,1.411,3.135,3.135V110.007z"/>
<g>
	<path style="fill:#FBD33B;" d="M191.373,110.007c0,1.724-1.411,3.135-3.135,3.135h-20.473c-1.724,0-3.135-1.411-3.135-3.135V89.832
		c0-1.724,1.411-3.135,3.135-3.135h20.473c1.724,0,3.135,1.411,3.135,3.135V110.007z"/>
	<path style="fill:#FBD33B;" d="M243.743,110.007c0,1.724-1.411,3.135-3.135,3.135h-20.474c-1.724,0-3.135-1.411-3.135-3.135V89.832
		c0-1.724,1.411-3.135,3.135-3.135h20.474c1.724,0,3.135,1.411,3.135,3.135V110.007z"/>
	<path style="fill:#FBD33B;" d="M139.004,161.795c0,1.724-1.411,3.135-3.135,3.135h-20.473c-1.724,0-3.135-1.411-3.135-3.135
		v-20.176c0-1.724,1.411-3.135,3.135-3.135h20.473c1.724,0,3.135,1.411,3.135,3.135V161.795z"/>
	<path style="fill:#FBD33B;" d="M191.373,161.795c0,1.724-1.411,3.135-3.135,3.135h-20.473c-1.724,0-3.135-1.411-3.135-3.135
		v-20.176c0-1.724,1.411-3.135,3.135-3.135h20.473c1.724,0,3.135,1.411,3.135,3.135V161.795z"/>
</g>
<g>
	<path style="fill:#FFFFFF;" d="M243.743,161.795c0,1.724-1.411,3.135-3.135,3.135h-20.474c-1.724,0-3.135-1.411-3.135-3.135
		v-20.176c0-1.724,1.411-3.135,3.135-3.135h20.474c1.724,0,3.135,1.411,3.135,3.135V161.795z"/>
	<path style="fill:#FFFFFF;" d="M139.004,213.582c0,1.724-1.411,3.135-3.135,3.135h-20.473c-1.724,0-3.135-1.411-3.135-3.135
		v-20.175c0-1.724,1.411-3.135,3.135-3.135h20.473c1.724,0,3.135,1.411,3.135,3.135V213.582z"/>
	<path style="fill:#FFFFFF;" d="M191.373,213.582c0,1.724-1.411,3.135-3.135,3.135h-20.473c-1.724,0-3.135-1.411-3.135-3.135
		v-20.175c0-1.724,1.411-3.135,3.135-3.135h20.473c1.724,0,3.135,1.411,3.135,3.135V213.582z"/>
</g>
<g>
	<path style="fill:#FBD33B;" d="M243.743,213.582c0,1.724-1.411,3.135-3.135,3.135h-20.474c-1.724,0-3.135-1.411-3.135-3.135
		v-20.175c0-1.724,1.411-3.135,3.135-3.135h20.474c1.724,0,3.135,1.411,3.135,3.135V213.582z"/>
	<path style="fill:#FBD33B;" d="M139.004,265.369c0,1.724-1.411,3.135-3.135,3.135h-20.473c-1.724,0-3.135-1.411-3.135-3.135
		v-20.176c0-1.724,1.411-3.135,3.135-3.135h20.473c1.724,0,3.135,1.411,3.135,3.135V265.369z"/>
	<path style="fill:#FBD33B;" d="M191.373,265.369c0,1.724-1.411,3.135-3.135,3.135h-20.473c-1.724,0-3.135-1.411-3.135-3.135
		v-20.176c0-1.724,1.411-3.135,3.135-3.135h20.473c1.724,0,3.135,1.411,3.135,3.135V265.369z"/>
</g>
<path style="fill:#FFFFFF;" d="M243.743,265.369c0,1.724-1.411,3.135-3.135,3.135h-20.474c-1.724,0-3.135-1.411-3.135-3.135v-20.176
	c0-1.724,1.411-3.135,3.135-3.135h20.474c1.724,0,3.135,1.411,3.135,3.135V265.369z"/>
<path style="fill:#FBD33B;" d="M139.004,317.156c0,1.724-1.411,3.135-3.135,3.135h-20.473c-1.724,0-3.135-1.411-3.135-3.135V296.98
	c0-1.724,1.411-3.135,3.135-3.135h20.473c1.724,0,3.135,1.411,3.135,3.135V317.156z"/>
<g>
	<path style="fill:#FFFFFF;" d="M191.373,317.156c0,1.724-1.411,3.135-3.135,3.135h-20.473c-1.724,0-3.135-1.411-3.135-3.135V296.98
		c0-1.724,1.411-3.135,3.135-3.135h20.473c1.724,0,3.135,1.411,3.135,3.135V317.156z"/>
	<path style="fill:#FFFFFF;" d="M243.743,317.156c0,1.724-1.411,3.135-3.135,3.135h-20.474c-1.724,0-3.135-1.411-3.135-3.135V296.98
		c0-1.724,1.411-3.135,3.135-3.135h20.474c1.724,0,3.135,1.411,3.135,3.135V317.156z"/>
</g>
<g>
	<path style="fill:#FBD33B;" d="M341.526,262.168c0,1.724-1.411,3.135-3.135,3.135h-20.474c-1.724,0-3.135-1.411-3.135-3.135
		v-20.176c0-1.724,1.411-3.135,3.135-3.135h20.474c1.724,0,3.135,1.411,3.135,3.135V262.168z"/>
	<path style="fill:#FBD33B;" d="M393.895,262.168c0,1.724-1.411,3.135-3.135,3.135h-20.473c-1.724,0-3.135-1.411-3.135-3.135
		v-20.176c0-1.724,1.411-3.135,3.135-3.135h20.473c1.724,0,3.135,1.411,3.135,3.135V262.168z"/>
</g>
<path style="fill:#FFFFFF;" d="M341.526,313.955c0,1.724-1.411,3.135-3.135,3.135h-20.474c-1.724,0-3.135-1.411-3.135-3.135v-20.176
	c0-1.724,1.411-3.135,3.135-3.135h20.474c1.724,0,3.135,1.411,3.135,3.135V313.955z"/>
<g>
	<path style="fill:#FBD33B;" d="M393.895,313.955c0,1.724-1.411,3.135-3.135,3.135h-20.473c-1.724,0-3.135-1.411-3.135-3.135
		v-20.176c0-1.724,1.411-3.135,3.135-3.135h20.473c1.724,0,3.135,1.411,3.135,3.135V313.955z"/>
	<path style="fill:#FBD33B;" d="M341.526,365.742c0,1.724-1.411,3.135-3.135,3.135h-20.474c-1.724,0-3.135-1.411-3.135-3.135
		v-20.175c0-1.724,1.411-3.135,3.135-3.135h20.474c1.724,0,3.135,1.411,3.135,3.135V365.742z"/>
</g>
<path style="fill:#FFFFFF;" d="M393.895,365.742c0,1.724-1.411,3.135-3.135,3.135h-20.473c-1.724,0-3.135-1.411-3.135-3.135v-20.175
	c0-1.724,1.411-3.135,3.135-3.135h20.473c1.724,0,3.135,1.411,3.135,3.135V365.742z"/>
<g>
	<path style="fill:#FFFFFF;" d="M394.557,407.564h-80.435c-4.328,0-7.837-3.509-7.837-7.837s3.509-7.837,7.837-7.837h80.435
		c4.328,0,7.837,3.509,7.837,7.837S398.886,407.564,394.557,407.564z"/>
	<path style="fill:#FFFFFF;" d="M368.223,179.146c0,2.873-2.351,5.224-5.224,5.224h-59.557c-2.873,0-5.224-2.351-5.224-5.224V62.173
		c0-2.873,2.351-5.224,5.224-5.224h59.557c2.873,0,5.224,2.351,5.224,5.224V179.146z"/>
</g>
<path style="opacity:0.0;enable-background:new    ;" d="M309.709,179.146V62.173c0-2.873,2.351-5.224,5.224-5.224h-11.492
	c-2.873,0-5.224,2.351-5.224,5.224v116.974c0,2.873,2.351,5.224,5.224,5.224h11.492C312.06,184.371,309.709,182.02,309.709,179.146z
	"/>
<g>
	<path style="fill:#FFFFFF;" d="M345.02,75.157c-4.328,0-7.837,3.509-7.837,7.837V93.72h-7.925V82.994
		c0-4.328-3.509-7.837-7.837-7.837s-7.837,3.509-7.837,7.837v37.124c0,4.328,3.509,7.837,7.837,7.837s7.837-3.509,7.837-7.837
		v-10.725h7.925v10.725c0,4.328,3.509,7.837,7.837,7.837s7.837-3.509,7.837-7.837V82.994
		C352.857,78.666,349.348,75.157,345.02,75.157z"/>
	<path style="fill:#FFFFFF;" d="M344.758,162.649h-23.074c-4.328,0-7.837-3.509-7.837-7.837c0-4.328,3.509-7.837,7.837-7.837h23.074
		c4.328,0,7.837,3.509,7.837,7.837C352.595,159.141,349.086,162.649,344.758,162.649z"/>
</g>
<path style="fill:#A0C663;" d="M458.635,282.253c-29.425,0-53.365,23.916-53.365,53.313c0,29.396,23.94,53.312,53.365,53.312
	c29.425,0,53.365-23.916,53.365-53.312C512,306.168,488.06,282.253,458.635,282.253z"/>
<path style="opacity:0.1;enable-background:new    ;" d="M422.139,335.564c0-26.529,19.499-48.587,44.928-52.64
	c-2.747-0.44-5.562-0.673-8.432-0.673c-29.425,0-53.365,23.916-53.365,53.313c0,29.396,23.94,53.312,53.365,53.312
	c2.87,0,5.684-0.233,8.432-0.673C441.638,384.151,422.139,362.093,422.139,335.564z"/>
<path style="fill:#965930;" d="M466.472,442.253v-88.199c0-4.328-3.509-7.837-7.837-7.837c-4.328,0-7.837,3.509-7.837,7.837v88.199
	H466.472z"/>
<path style="fill:#A0C663;" d="M53.365,282.253C23.94,282.253,0,306.168,0,335.564c0,29.396,23.94,53.312,53.365,53.312
	s53.365-23.916,53.365-53.312C106.73,306.168,82.79,282.253,53.365,282.253z"/>
<path style="opacity:0.1;enable-background:new    ;" d="M15.673,335.564c0-26.727,19.789-48.918,45.498-52.729
	c-2.55-0.377-5.154-0.584-7.807-0.584C23.94,282.253,0,306.168,0,335.564c0,29.396,23.94,53.312,53.365,53.312
	c2.653,0,5.257-0.207,7.807-0.584C35.463,384.481,15.673,362.292,15.673,335.564z"/>
<path style="fill:#965930;" d="M61.202,442.253v-88.199c0-4.328-3.509-7.837-7.837-7.837s-7.837,3.509-7.837,7.837v88.199H61.202z"
	/>
<path style="fill:#554141;" d="M498.939,455.051H13.061c-4.328,0-7.837-3.509-7.837-7.837c0-4.328,3.509-7.837,7.837-7.837h485.878
	c4.328,0,7.837,3.509,7.837,7.837C506.775,451.543,503.267,455.051,498.939,455.051z"/>
<g>
</g>
<g>
</g>
<g>
</g>
<g>
</g>
<g>
</g>
<g>
</g>
<g>
</g>
<g>
</g>
<g>
</g>
<g>
</g>
<g>
</g>
<g>
</g>
<g>
</g>
<g>
</g>
<g>
</g>
</svg>
