<?xml version="1.0" encoding="iso-8859-1"?>
<!-- Generator: Adobe Illustrator 19.0.0, SVG Export Plug-In . SVG Version: 6.00 Build 0)  -->
<svg xmlns="http://www.w3.org/2000/svg" xmlns:xlink="http://www.w3.org/1999/xlink" version="1.1" id="Capa_1" x="0px" y="0px" viewBox="0 0 512 512" style="enable-background:new 0 0 512 512;" xml:space="preserve" width="512px" height="512px">
<g>
	<g>
		<path d="M437.002,391.996h-44.999V15.006c0-8.284-6.716-15-15-15c-8.284,0-15,6.716-15,15v376.99h-44.999    c-41.354,0-74.998,33.644-74.998,74.998c0,8.284,6.716,15,15,15h15v15c0,8.284,6.716,15,15,15c8.284,0,15-6.716,15-15v-15h29.999    v15c0,8.284,6.716,15,15,15c8.284,0,15-6.716,15-15v-15h29.999v15c0,8.284,6.716,15,15,15c8.284,0,15-6.716,15-15v-15h29.999v15    c0,8.284,6.716,15,15,15c8.284,0,15-6.716,15-15v-15h15c8.284,0,15-6.716,15-15C512,425.64,478.356,391.996,437.002,391.996z     M274.577,451.995c6.191-17.461,22.872-29.999,42.428-29.999h119.997c19.556,0,36.238,12.539,42.429,29.999H274.577z" fill="#757575"/>
	</g>
</g>
<g>
	<g>
		<path d="M165.009,346.997c-8.284,0-15,6.716-15,15c0,16.542-13.458,29.999-29.999,29.999s-29.999-13.458-29.999-29.999    c0-8.284-6.716-15-15-15c-8.284,0-15,6.716-15,15c0,33.083,26.915,59.998,59.998,59.998c33.083,0,59.998-26.915,59.998-59.998    C180.009,353.713,173.293,346.997,165.009,346.997z" fill="#757575"/>
	</g>
</g>
<g>
	<g>
		<path d="M150.009,212.001V15.006c0-8.284-6.716-15-15-15c-8.284,0-15,6.716-15,15v202.178    c-15.566,5.527-29.469,15.269-39.985,28.237c-6.378-2.256-13.129-3.42-20.013-3.42c-36.999,0-65.381,33.364-59.151,70.089    c-1.808,5.213-2.954-6.486,29.355,187.37c1.206,7.233,7.463,12.534,14.796,12.534h149.996c7.333,0,13.59-5.301,14.796-12.534    c32.377-194.265,31.006-181.964,29.548-186.792C245.753,258.556,203.318,212.001,150.009,212.001z M182.302,481.994H57.719    L32.719,331.998h174.582L182.302,481.994z M30.013,301.998c0-16.542,13.458-29.999,29.999-29.999    c5.966,0,11.723,1.743,16.65,5.039c3.45,2.309,7.701,3.084,11.745,2.142c4.042-0.942,7.514-3.517,9.589-7.112    C108.695,253.522,128.626,242,150.009,242c33.083,0,59.998,26.915,59.998,59.998H30.013z" fill="#757575"/>
	</g>
</g>
<g>
	<g>
		<circle cx="75.748" cy="77.007" r="15" fill="#757575"/>
	</g>
</g>
<g>
	<g>
		<path d="M45.012,122.003c-24.812,0-44.999,20.186-44.999,44.999s20.186,44.999,44.999,44.999s44.999-20.187,44.999-44.999    S69.824,122.003,45.012,122.003z M45.012,182.001c-8.271,0-15-6.729-15-15c0-8.271,6.729-15,15-15c8.271,0,15,6.729,15,15    C60.012,175.273,53.283,182.001,45.012,182.001z" fill="#757575"/>
	</g>
</g>
<g>
</g>
<g>
</g>
<g>
</g>
<g>
</g>
<g>
</g>
<g>
</g>
<g>
</g>
<g>
</g>
<g>
</g>
<g>
</g>
<g>
</g>
<g>
</g>
<g>
</g>
<g>
</g>
<g>
</g>
</svg>
