<?xml version="1.0" encoding="iso-8859-1"?>
<!-- Generator: Adobe Illustrator 19.0.0, SVG Export Plug-In . SVG Version: 6.00 Build 0)  -->
<svg version="1.1" id="Layer_1" xmlns="http://www.w3.org/2000/svg" xmlns:xlink="http://www.w3.org/1999/xlink" x="0px" y="0px"
	 viewBox="0 0 512 512" style="enable-background:new 0 0 512 512;" xml:space="preserve">
<g>
	<path style="fill:#508DA3;" d="M96.024,33.549L96.024,33.549c-7.287,31.038,11.969,62.107,43.007,69.392l0,0l0,0
		C146.317,71.905,127.063,40.836,96.024,33.549L96.024,33.549z"/>
	<path style="fill:#508DA3;" d="M69.561,145.931L69.561,145.931c7.287-31.038,38.354-50.292,69.392-43.007l0,0l0,0
		C131.666,133.962,100.599,153.216,69.561,145.931L69.561,145.931z"/>
</g>
<path style="fill:#F9C573;" d="M95.011,311.703v25.125c0,4.082-1.654,7.765-4.328,10.439c-2.674,2.663-6.369,4.317-10.439,4.317
	c-8.152,0-14.768,6.616-14.768,14.768v58.825c0,10.217-8.516,18.439-18.838,17.947c-9.677-0.446-17.114-8.774-17.114-18.463v-58.309
	c0-4.07-1.654-7.765-4.328-10.439c-2.663-2.674-6.358-4.328-10.439-4.328C6.604,351.584,0,344.98,0,336.828v-25.125l51.415-14.724
	L95.011,311.703z"/>
<path style="fill:#E2AF66;" d="M38.125,424.66v-58.309c0-4.07-1.654-7.765-4.328-10.439c-2.663-2.674-6.358-4.328-10.439-4.328
	c-8.152,0-14.756-6.604-14.756-14.756v-25.125l46.759-13.392l-3.947-1.334L0,311.703v25.125c0,8.152,6.604,14.756,14.756,14.756
	c4.082,0,7.777,1.654,10.439,4.328c2.674,2.674,4.328,6.369,4.328,10.439v58.309c0,9.689,7.437,18.017,17.114,18.463
	c1.788,0.086,3.515-0.107,5.16-0.509C43.855,440.615,38.125,433.163,38.125,424.66z"/>
<g>
	<path style="fill:#E0B394;" d="M125.014,211.12c-14.545-0.645-26.122-12.645-26.122-27.342c0-15.108,12.246-27.365,27.366-27.365
		c1.361,0,2.698,0.094,4.012,0.293"/>
	<path style="fill:#E0B394;" d="M369.955,211.12c14.545-0.645,26.134-12.645,26.134-27.342c0-15.108-12.258-27.365-27.377-27.365
		c-1.361,0-2.71,0.106-4.012,0.293"/>
</g>
<path style="fill:#E6E6E6;" d="M302.805,310.272H192.183c-40.064,0-72.544,32.478-72.544,72.544v106.484h255.708V382.816
	C375.348,342.75,342.87,310.272,302.805,310.272z"/>
<path style="fill:#CCCCCC;" d="M236.88,310.272h-44.697c-40.064,0-72.544,32.478-72.544,72.544v106.484h44.697V382.816
	C164.337,342.75,196.816,310.272,236.88,310.272z"/>
<path style="fill:#E0B394;" d="M298.537,286.684v65.166c0,28.188-22.855,51.043-51.043,51.043
	c-28.197,0-51.043-22.855-51.043-51.043v-65.166L298.537,286.684L298.537,286.684z"/>
<path style="fill:#5D9EBA;" d="M247.494,409.346c-31.702,0-57.495-25.793-57.495-57.495v-65.166c0-3.563,2.888-6.451,6.451-6.451
	h102.087c3.564,0,6.451,2.888,6.451,6.451v65.166C304.989,383.553,279.196,409.346,247.494,409.346z M202.901,293.136v58.714
	c0,24.588,20.004,44.592,44.592,44.592s44.593-20.004,44.593-44.592v-58.714H202.901L202.901,293.136z"/>
<path style="fill:#666666;" d="M503.203,441.523H328.237c-3.239,0-5.865-2.626-5.865-5.865c0-3.239,2.626-5.865,5.865-5.865h174.964
	c3.239,0,5.865,2.626,5.865,5.865C509.066,438.897,506.441,441.523,503.203,441.523z"/>
<path style="fill:#F7CBA4;" d="M207.902,329.409l-48.149-34.983c-25.444-18.486-39.209-49.056-36.184-80.362l8.352-86.422
	c5.752-59.523,55.771-104.941,115.571-104.941l0,0c59.799,0,109.819,45.419,115.571,104.941l8.352,86.422
	c3.025,31.306-10.739,61.874-36.184,80.362l-48.149,34.983C263.472,346.56,231.508,346.56,207.902,329.409z"/>
<path style="fill:#E8BA97;" d="M153.532,231.096c-0.809,13.689,3.648,27.154,12.469,37.652l50.324,61.839
	c2.627,3.132,5.607,5.759,8.833,7.859c-6.053-2.111-11.87-5.138-17.254-9.044l-48.151-34.978
	c-25.442-18.486-39.201-49.054-36.175-80.361l8.34-86.425c5.701-58.942,54.801-104.055,113.837-104.911
	c-36.362,0.88-77.537,35.154-79.684,71.657L153.532,231.096z"/>
<path style="fill:#5D9EBA;" d="M325.547,52.851c20.691,18.791,34.638,45.03,37.512,74.789H131.924
	c5.748-59.517,55.763-104.934,115.561-104.934C277.385,22.705,304.844,34.06,325.547,52.851z"/>
<path style="fill:#508DA3;" d="M247.481,22.705L247.481,22.705c-59.799,0-109.815,45.418-115.563,104.934h30.497
	C166.648,68.124,203.464,22.706,247.481,22.705z"/>
<path style="fill:#E5624C;" d="M483.184,414.045v43.224c0,3.578-2.897,6.487-6.475,6.487H343.705c-3.578,0-6.475-2.909-6.475-6.487
	v-43.224c0-3.578,2.897-6.487,6.475-6.487h133.004C480.286,407.558,483.184,410.467,483.184,414.045z"/>
<path style="fill:#F76B4F;" d="M483.184,414.045v33.289H352.315c-3.589,0-6.487-2.909-6.487-6.487v-33.289h130.881
	C480.286,407.558,483.184,410.467,483.184,414.045z"/>
<path style="fill:#4D4D4D;" d="M512,454.353h-17.595v-51.976c0-4.941-4.006-8.946-8.946-8.946h-43.102
	c-14.659,0-26.541-11.882-26.541-26.541V107.812c0-4.858,3.939-8.797,8.797-8.797l0,0c4.858,0,8.797,3.939,8.797,8.797V366.89
	c0,4.941,4.006,8.946,8.946,8.946h43.102c14.659,0,26.541,11.882,26.541,26.541V454.353z"/>
<g>
	<path style="fill:#F76B4F;" d="M194.008,427.768c-1.79,0-3.499,0.334-5.087,0.916c-2.455-8.502-10.28-14.726-19.572-14.726
		c-11.258,0-20.385,9.127-20.385,20.385s9.127,20.385,20.385,20.385c4.605,0,8.84-1.545,12.252-4.121
		c2.638,4.06,7.204,6.752,12.407,6.752c8.171,0,14.796-6.624,14.796-14.796C208.802,434.391,202.18,427.768,194.008,427.768z"/>
	<rect x="0" y="234.29" style="fill:#F76B4F;" width="95.011" height="77.416"/>
</g>
<g>
	<polygon style="fill:#E5624C;" points="28.289,234.286 23.235,299.785 18.181,234.286 	"/>
	<polygon style="fill:#E5624C;" points="83.806,234.286 78.751,299.785 73.698,234.286 	"/>
	<polygon style="fill:#E5624C;" points="49.851,234.286 44.797,282.238 39.744,234.286 	"/>
</g>
<g>
	<circle style="fill:#F76B4F;" cx="328.046" cy="378.894" r="7.624"/>
	<circle style="fill:#F76B4F;" cx="179.465" cy="475.266" r="7.624"/>
	<circle style="fill:#F76B4F;" cx="325.113" cy="88.971" r="7.624"/>
	<circle style="fill:#F76B4F;" cx="298.405" cy="109.485" r="7.624"/>
	<circle style="fill:#F76B4F;" cx="334.181" cy="99.281" r="10.639"/>
</g>
<path style="fill:#F2F2F2;" d="M293.409,261.98c0,0-0.669,1.642-2.076,4.234c-0.34,0.669-0.739,1.372-1.185,2.135
	c-0.528,0.751-1.138,1.513-1.795,2.369c-0.657,0.856-1.408,1.724-2.205,2.686c-0.282,0.364-0.586,0.669-0.915,0.985
	c-0.117,0.117-0.246,0.235-0.375,0.352c-0.457,0.422-0.927,0.868-1.408,1.314c-0.962,0.903-2.006,1.795-3.097,2.733
	c-1.15,0.845-2.381,1.642-3.648,2.51c-0.633,0.434-1.29,0.856-1.959,1.279c-0.669,0.399-1.384,0.727-2.111,1.091
	c-1.431,0.727-2.921,1.431-4.457,2.135c-3.167,1.079-6.463,2.346-9.982,2.874c-3.472,0.809-7.097,0.938-10.709,1.114
	c-3.613-0.176-7.237-0.293-10.709-1.103c-3.519-0.528-6.815-1.795-9.982-2.874c-1.537-0.692-3.026-1.396-4.469-2.123
	c-0.716-0.364-1.431-0.692-2.111-1.091c-0.657-0.434-1.314-0.845-1.947-1.279c-1.267-0.868-2.51-1.677-3.66-2.51
	c-1.091-0.938-2.123-1.842-3.097-2.733c-0.481-0.457-0.938-0.891-1.396-1.325c-0.164-0.152-0.328-0.305-0.493-0.457
	c-0.282-0.282-0.551-0.551-0.786-0.868c-0.762-0.927-1.501-1.783-2.147-2.627c-0.633-0.856-1.255-1.607-1.771-2.358
	c-0.469-0.798-0.903-1.525-1.267-2.193c-1.466-2.674-2.076-4.27-2.076-4.27s1.736,0.528,4.41,1.607
	c0.68,0.258,1.384,0.575,2.17,0.891c0.833,0.246,1.689,0.563,2.604,0.868c0.927,0.305,1.853,0.68,2.839,1.032
	c0.974,0.375,2.076,0.622,3.167,0.95c1.091,0.317,2.182,0.704,3.32,1.044c1.185,0.258,2.369,0.563,3.589,0.856
	c0.61,0.141,1.208,0.317,1.818,0.481c0.622,0.141,1.267,0.223,1.9,0.352c1.279,0.223,2.557,0.481,3.836,0.774
	c2.663,0.246,5.29,0.833,8.035,0.938c2.71,0.352,5.478,0.258,8.223,0.422c2.757-0.164,5.525-0.059,8.234-0.411
	c2.745-0.094,5.372-0.692,8.035-0.938c1.279-0.282,2.557-0.54,3.836-0.762c0.633-0.129,1.279-0.211,1.9-0.352
	c0.61-0.176,1.22-0.34,1.818-0.481c1.22-0.293,2.405-0.61,3.589-0.856c1.15-0.34,2.24-0.727,3.331-1.044
	c1.079-0.328,2.205-0.586,3.144-0.95c0.962-0.328,1.865-0.692,2.78-0.974c0.903-0.305,1.748-0.61,2.581-0.856
	c0.821-0.352,1.548-0.692,2.24-0.962C291.708,262.473,293.409,261.98,293.409,261.98z"/>
<g>
	<path style="fill:#4D4D4D;" d="M285.233,274.391c-0.117,0.117-0.246,0.235-0.375,0.352c-0.457,0.422-0.927,0.868-1.408,1.314
		c-0.962,0.903-2.006,1.795-3.097,2.733c-1.15,0.845-2.381,1.642-3.648,2.51c-0.633,0.434-1.29,0.856-1.959,1.279
		c-0.669,0.399-1.384,0.727-2.111,1.091c-1.431,0.727-2.921,1.431-4.457,2.135c-3.167,1.079-6.463,2.346-9.982,2.874
		c-3.472,0.809-7.097,0.938-10.709,1.114c-3.613-0.176-7.237-0.293-10.709-1.103c-3.519-0.528-6.815-1.795-9.982-2.874
		c-1.537-0.692-3.026-1.396-4.469-2.123c-0.716-0.364-1.431-0.692-2.111-1.091c-0.657-0.434-1.314-0.845-1.947-1.279
		c-1.267-0.868-2.51-1.677-3.66-2.51c-1.091-0.938-2.123-1.842-3.097-2.733c-0.481-0.457-0.938-0.891-1.396-1.325
		c-0.164-0.152-0.328-0.305-0.493-0.457c0.375,0.129,0.751,0.258,1.138,0.387c0.927,0.305,1.853,0.669,2.839,1.02
		c0.974,0.387,2.076,0.633,3.167,0.962c1.091,0.317,2.182,0.692,3.32,1.044c1.185,0.246,2.369,0.563,3.589,0.856
		c0.61,0.141,1.208,0.305,1.818,0.469c0.622,0.141,1.267,0.223,1.9,0.352c1.279,0.223,2.557,0.493,3.836,0.774
		c2.663,0.258,5.29,0.845,8.035,0.938c2.71,0.364,5.478,0.258,8.223,0.434c2.757-0.164,5.525-0.059,8.234-0.422
		c2.745-0.094,5.372-0.68,8.035-0.927c1.279-0.282,2.557-0.551,3.836-0.774c0.633-0.129,1.279-0.211,1.9-0.352
		c0.61-0.164,1.22-0.328,1.818-0.469c1.22-0.293,2.405-0.61,3.589-0.856c1.15-0.352,2.24-0.739,3.331-1.044
		c1.079-0.328,2.205-0.598,3.144-0.95c0.962-0.34,1.865-0.692,2.78-0.985C284.518,274.637,284.882,274.508,285.233,274.391z"/>
	<path style="fill:#4D4D4D;" d="M195.273,222.688c-4.858,0-8.797-3.939-8.797-8.797V199.82c0-4.858,3.939-8.797,8.797-8.797
		s8.797,3.939,8.797,8.797v14.071C204.071,218.749,200.132,222.688,195.273,222.688z"/>
</g>
<g>
	<path style="fill:#666666;" d="M279.594,165.804c0,0,0.023-0.233,0.102-0.635c0.09-0.388,0.182-1.002,0.379-1.696
		c0.088-0.359,0.202-0.733,0.332-1.145c0.17-0.418,0.399-0.838,0.642-1.314c0.24-0.479,0.544-0.951,0.863-1.483
		c0.321-0.54,0.705-0.949,1.098-1.47c0.399-0.501,0.848-0.985,1.317-1.506c0.496-0.47,1.035-0.934,1.607-1.399
		c1.12-0.986,2.489-1.7,3.915-2.493c1.476-0.624,3.042-1.301,4.719-1.614c1.661-0.432,3.403-0.534,5.14-0.615
		c1.737,0.08,3.48,0.172,5.142,0.602c1.679,0.31,3.246,0.99,4.722,1.609c1.428,0.792,2.798,1.504,3.919,2.491
		c0.571,0.467,1.111,0.931,1.608,1.399c0.469,0.522,0.916,1.011,1.317,1.508c0.387,0.518,0.789,0.944,1.084,1.463
		c0.296,0.516,0.582,0.978,0.814,1.446c0.231,0.469,0.455,0.882,0.624,1.298c0.154,0.434,0.29,0.827,0.391,1.199
		c0.223,0.719,0.316,1.337,0.401,1.724c0.075,0.4,0.091,0.628,0.091,0.628s-0.243-0.006-0.653-0.046
		c-0.399-0.052-1.018-0.077-1.702-0.177c-0.354-0.036-0.716-0.102-1.113-0.155c-0.423-0.02-0.841-0.079-1.295-0.114
		c-0.89-0.094-1.819-0.233-2.841-0.273c-0.502-0.033-0.989-0.106-1.498-0.148c-0.527-0.007-1.046-0.034-1.562-0.073
		c-1.011-0.131-2.11-0.054-3.131-0.182c-1.073,0.039-2.101-0.093-3.165-0.06c-1.046-0.079-2.104,0.005-3.154-0.069
		c-1.05,0.072-2.108-0.02-3.156,0.056c-1.065-0.038-2.093,0.099-3.168,0.055c-1.022,0.127-2.123,0.048-3.134,0.181
		c-0.516,0.039-1.036,0.067-1.564,0.073c-0.509,0.042-0.994,0.12-1.498,0.15c-1.042,0.056-1.907,0.155-2.776,0.23
		c-0.456,0.035-0.883,0.068-1.279,0.097c-0.421,0.076-0.806,0.161-1.172,0.209c-0.71,0.126-1.33,0.155-1.724,0.205
		C279.828,165.804,279.594,165.804,279.594,165.804z"/>
	<path style="fill:#666666;" d="M175.159,165.804c0,0,0.023-0.233,0.102-0.635c0.09-0.388,0.182-1.002,0.379-1.696
		c0.088-0.359,0.202-0.733,0.332-1.145c0.17-0.418,0.399-0.838,0.642-1.314c0.24-0.479,0.544-0.951,0.863-1.483
		c0.321-0.54,0.705-0.949,1.098-1.47c0.399-0.501,0.848-0.985,1.317-1.506c0.496-0.47,1.035-0.934,1.607-1.399
		c1.12-0.986,2.489-1.7,3.915-2.493c1.476-0.624,3.042-1.301,4.719-1.614c1.661-0.432,3.403-0.534,5.14-0.615
		c1.737,0.08,3.48,0.172,5.142,0.602c1.679,0.31,3.246,0.99,4.722,1.609c1.428,0.792,2.798,1.504,3.919,2.491
		c0.571,0.467,1.111,0.931,1.608,1.399c0.469,0.522,0.916,1.011,1.317,1.508c0.387,0.518,0.789,0.944,1.084,1.463
		c0.296,0.516,0.582,0.978,0.814,1.446c0.231,0.469,0.455,0.882,0.624,1.298c0.154,0.434,0.29,0.827,0.391,1.199
		c0.223,0.719,0.316,1.337,0.401,1.724c0.075,0.4,0.092,0.628,0.092,0.628s-0.243-0.006-0.653-0.046
		c-0.399-0.052-1.018-0.077-1.702-0.177c-0.354-0.036-0.716-0.102-1.113-0.155c-0.423-0.02-0.841-0.079-1.295-0.114
		c-0.89-0.094-1.819-0.233-2.841-0.273c-0.502-0.033-0.989-0.106-1.498-0.148c-0.527-0.007-1.046-0.034-1.562-0.073
		c-1.011-0.131-2.11-0.054-3.131-0.182c-1.073,0.039-2.101-0.093-3.165-0.06c-1.046-0.079-2.104,0.005-3.154-0.069
		c-1.05,0.072-2.108-0.02-3.156,0.056c-1.065-0.038-2.093,0.099-3.168,0.055c-1.022,0.127-2.123,0.048-3.134,0.181
		c-0.516,0.039-1.036,0.067-1.564,0.073c-0.509,0.042-0.993,0.12-1.498,0.15c-1.042,0.056-1.907,0.155-2.776,0.23
		c-0.456,0.035-0.883,0.068-1.279,0.097c-0.421,0.076-0.806,0.161-1.172,0.209c-0.71,0.126-1.33,0.155-1.724,0.205
		C175.395,165.804,175.159,165.804,175.159,165.804z"/>
</g>
<path style="fill:#4D4D4D;" d="M299.708,222.688c-4.858,0-8.797-3.939-8.797-8.797V199.82c0-4.858,3.939-8.797,8.797-8.797
	c4.858,0,8.797,3.939,8.797,8.797v14.071C308.505,218.749,304.566,222.688,299.708,222.688z"/>
<path style="fill:#E0B394;" d="M260.98,186.917v41.641c0,7.45-6.04,13.489-13.489,13.489l0,0c-7.45,0-13.489-6.04-13.489-13.489
	v-41.641"/>
<g>
</g>
<g>
</g>
<g>
</g>
<g>
</g>
<g>
</g>
<g>
</g>
<g>
</g>
<g>
</g>
<g>
</g>
<g>
</g>
<g>
</g>
<g>
</g>
<g>
</g>
<g>
</g>
<g>
</g>
</svg>
