<?xml version="1.0"?>
<svg xmlns="http://www.w3.org/2000/svg" xmlns:xlink="http://www.w3.org/1999/xlink" version="1.1" id="Capa_1" x="0px" y="0px" viewBox="0 0 59 59" style="enable-background:new 0 0 59 59;" xml:space="preserve" width="512px" height="512px" class=""><g><rect x="0.5" y="48" style="fill:#ECF0F1;" width="58" height="11" data-original="#ECF0F1" class=""/><rect x="16.5" style="fill:#9A4B4F" width="26" height="48" data-original="#556080" class="" data-old_color="#1C2F66"/><polygon style="fill:#B5595D" points="0.5,3 0.5,19 0.5,37 0.5,48 16.5,48 16.5,37 16.5,19 16.5,3 " data-original="#8697CB" class="active-path" data-old_color="#ED7161"/><polygon style="fill:#B5595D" points="42.5,3 42.5,19 42.5,37 42.5,48 58.5,48 58.5,37 58.5,19 58.5,3 " data-original="#8697CB" class="active-path" data-old_color="#ED7161"/><rect x="20.5" y="5" style="fill:#FFFFFF;" width="7" height="5" data-original="#FFFFFF" class=""/><rect x="31.5" y="5" style="fill:#FFFFFF;" width="7" height="5" data-original="#FFFFFF" class=""/><rect x="46.5" y="9" style="fill:#FFFFFF;" width="8" height="5" data-original="#FFFFFF" class=""/><rect x="46.5" y="18" style="fill:#FFFFFF;" width="8" height="5" data-original="#FFFFFF" class=""/><rect x="4.5" y="9" style="fill:#FFFFFF;" width="8" height="5" data-original="#FFFFFF" class=""/><rect x="4.5" y="18" style="fill:#FFFFFF;" width="8" height="5" data-original="#FFFFFF" class=""/><rect x="20.5" y="14" style="fill:#FFFFFF;" width="7" height="5" data-original="#FFFFFF" class=""/><rect x="31.5" y="14" style="fill:#FFFFFF;" width="7" height="5" data-original="#FFFFFF" class=""/><rect x="20.5" y="23" style="fill:#FFFFFF;" width="7" height="5" data-original="#FFFFFF" class=""/><rect x="31.5" y="23" style="fill:#FFFFFF;" width="7" height="5" data-original="#FFFFFF" class=""/><polygon style="fill:#ED7161" points="38.5,59 20.5,59 22.5,48 36.5,48 " data-original="#ED7161" class=""/><rect x="21.5" y="34" style="fill:#D0E8F9;" width="16" height="14" data-original="#D0E8F9" class=""/><path style="fill:#3D324C;" d="M37.5,33h-16c-0.552,0-1,0.448-1,1v14h18V34C38.5,33.448,38.052,33,37.5,33z" data-original="#3D324C" class=""/><rect x="22.5" y="35" style="fill:#D0E8F9;" width="14" height="13" data-original="#D0E8F9" class=""/><rect x="28.5" y="35" style="fill:#3D324C;" width="2" height="13" data-original="#3D324C" class=""/><circle style="fill:#A4E869;" cx="8.5" cy="37" r="8" data-original="#A4E869" class=""/><circle style="fill:#A4E869;" cx="50.5" cy="37" r="8" data-original="#A4E869" class=""/><g>
	<path style="fill:#7F6E5D" d="M10.793,37.293L8.5,39.586l-2.293-2.293c-0.391-0.391-1.023-0.391-1.414,0s-0.391,1.023,0,1.414   L7.5,41.414V58c0,0.552,0.448,1,1,1s1-0.448,1-1V41.414l2.707-2.707c0.391-0.391,0.391-1.023,0-1.414S11.184,36.902,10.793,37.293z   " data-original="#7F6E5D" class=""/>
	<path style="fill:#7F6E5D" d="M54.207,37.293c-0.391-0.391-1.023-0.391-1.414,0L50.5,39.586l-2.293-2.293   c-0.391-0.391-1.023-0.391-1.414,0s-0.391,1.023,0,1.414l2.707,2.707V58c0,0.552,0.448,1,1,1s1-0.448,1-1V41.414l2.707-2.707   C54.598,38.316,54.598,37.684,54.207,37.293z" data-original="#7F6E5D" class=""/>
</g></g> </svg>
