<svg height="512pt" viewBox="-77 0 512 512.00056" width="512pt" xmlns="http://www.w3.org/2000/svg"><path d="m159.839844 289.238281v199.515625l-25.238282 8.410156c-3.988281 1.332032-6.140624 5.640626-4.8125 9.628907 1.328126 3.988281 5.640626 6.144531 9.625 4.816406l30.445313-10.148437c3.109375-1.039063 5.203125-3.945313 5.203125-7.222657v-205zm0 0" fill="#b3b3b3"/><path d="m235.957031 289.238281v199.515625l25.238281 8.410156c3.988282 1.332032 6.144532 5.640626 4.816407 9.628907-1.332031 3.988281-5.640625 6.144531-9.628907 4.816406l-30.445312-10.148437c-3.105469-1.039063-5.203125-3.945313-5.203125-7.222657v-205zm0 0" fill="#999"/><path d="m334.90625 149.695312h-15.222656c-4.203125 0-7.613282 3.40625-7.613282 7.609376 0 4.203124 3.410157 7.613281 7.613282 7.613281h15.222656c4.199219 0 7.613281 3.414062 7.613281 7.609375 0 4.199218-3.414062 7.613281-7.613281 7.613281h-137.007812v15.222656h137.007812c12.589844 0 22.835938-10.242187 22.835938-22.835937 0-12.589844-10.246094-22.832032-22.835938-22.832032zm0 0" fill="#85453d"/><path d="m182.675781 243.570312 15.222657 91.335938c25.222656 0 45.667968-20.445312 45.667968-45.667969zm0 0" fill="#999"/><path d="m152.230469 289.238281c0 25.222657 20.445312 45.667969 45.667969 45.667969v-91.335938zm0 0" fill="#b3b3b3"/><path d="m228.34375 167.453125h-30.445312l-30.445313 60.886719 30.445313 60.886718 45.667968.011719v-91.339843zm0 0" fill="#dbf4ff"/><path d="m197.898438 167.453125h-30.445313l-15.222656 30.445313v91.339843l45.667969-.011719zm0 0" fill="#fff"/><path d="m238.492188 167.453125h-10.148438v155.820313h10.164062c11.15625-.007813 20.285157-9.140626 20.285157-20.296876v-115.226562c0-11.210938-9.089844-20.296875-20.300781-20.296875zm0 0" fill="#85453d"/><path d="m157.304688 167.453125h10.148437v155.820313h-10.160156c-11.15625-.007813-20.285157-9.140626-20.285157-20.296876v-115.226562c0-11.210938 9.085938-20.296875 20.296876-20.296875zm0 0" fill="#a45e43"/><g fill="#7dd9ff"><path d="m205.511719 197.886719c0 4.203125-3.410157 7.613281-7.613281 7.613281-4.203126 0-7.609376-3.410156-7.609376-7.613281s3.40625-7.609375 7.609376-7.609375c4.203124 0 7.613281 3.40625 7.613281 7.609375zm0 0"/><path d="m205.511719 228.332031c0 4.203125-3.410157 7.613281-7.613281 7.613281-4.203126 0-7.609376-3.410156-7.609376-7.613281s3.40625-7.609375 7.609376-7.609375c4.203124 0 7.613281 3.40625 7.613281 7.609375zm0 0"/><path d="m205.511719 258.78125c0 4.203125-3.410157 7.609375-7.613281 7.609375-4.203126 0-7.609376-3.40625-7.609376-7.609375 0-4.207031 3.40625-7.613281 7.609376-7.613281 4.203124 0 7.613281 3.40625 7.613281 7.613281zm0 0"/></g><path d="m106.558594 152.230469c0-8.402344-6.808594-15.222657-15.222656-15.222657h-30.445313l.003906 150.367188h30.445313c8.414062 0 15.222656-6.820312 15.222656-15.222656zm0 0" fill="#ffe2a8"/><path d="m30.449219 241.707031v-59.03125l-15.226563-45.667969h45.667969c8.414063 0 15.222656 6.820313 15.222656 15.222657v119.921875c0 8.402344-6.808593 15.222656-15.222656 15.222656h-45.667969zm0 0" fill="#fff0d3"/><path d="m0 182.675781h30.449219v-30.445312c0-8.40625-6.816407-15.222657-15.222657-15.222657-8.410156 0-15.226562 6.816407-15.226562 15.222657zm0 0" fill="#ffcb63"/><path d="m0 241.707031h30.449219v30.445313c0 8.40625-6.816407 15.222656-15.222657 15.222656-8.410156 0-15.226562-6.816406-15.226562-15.222656zm0 0" fill="#ffcb63"/><path d="m232.148438 22.835938c-.007813-7.882813-4.09375-15.550782-11.414063-19.777344-7.320313-4.222656-16.003906-3.929688-22.835937.003906-6.832032-3.9375-15.515626-4.226562-22.832032-.003906-7.320312 4.226562-11.410156 11.894531-11.414062 19.777344-6.828125 3.949218-11.421875 11.324218-11.421875 19.777343v48.726563h91.335937s0-40.277344 0-48.726563c0-8.453125-4.59375-15.828125-11.417968-19.777343zm0 0" fill="#ccc"/><path d="m197.898438 45.667969v102.503906l45.667968-46.683594v-10.148437c0-25.222656-20.445312-45.671875-45.667968-45.671875zm0 0" fill="#ffd9d4"/><path d="m197.898438 45.667969c-25.222657 0-45.667969 20.449219-45.667969 45.671875v10.148437l60.890625 46.683594v-56.832031c0-25.222656-6.816406-45.671875-15.222656-45.671875zm0 0" fill="#fff0d3"/><path d="m216.886719 101.488281c-1.070313-1.597656-2.335938-3.046875-3.765625-4.324219l-15.222656 70.289063c25.222656 0 45.667968-20.445313 45.667968-45.667969v-20.296875zm0 0" fill="#b3b3b3"/><path d="m213.121094 121.785156v-24.621094c-4.039063-3.621093-9.371094-5.824218-15.222656-5.824218-7.917969 0-14.890626 4.027344-18.988282 10.148437h-26.679687v20.296875c0 25.222656 20.445312 45.667969 45.667969 45.667969 8.40625 0 15.222656-20.445313 15.222656-45.667969zm0 0" fill="#ccc"/><path d="m319.683594 134.46875c-4.203125 0-7.613282-3.40625-7.613282-7.609375v-30.445313c0-4.203124 3.410157-7.613281 7.613282-7.613281s7.609375 3.410157 7.609375 7.613281v30.445313c0 4.203125-3.40625 7.609375-7.609375 7.609375zm0 0" fill="#ffcb63"/></svg>