<?xml version="1.0" encoding="iso-8859-1"?>
<!-- Generator: Adobe Illustrator 19.0.0, SVG Export Plug-In . SVG Version: 6.00 Build 0)  -->
<svg xmlns="http://www.w3.org/2000/svg" xmlns:xlink="http://www.w3.org/1999/xlink" version="1.1" id="Capa_1" x="0px" y="0px" viewBox="0 0 512 512" style="enable-background:new 0 0 512 512;" xml:space="preserve" width="512px" height="512px">
<g>
	<g>
		<path d="M440.011,0c-22.374,0-43.084,10.129-56.821,27.791l-79.117,101.722c-11.692,15.032-31.688,21.086-49.753,15.063    l-31.983-10.66c-16.277-5.426-33.922-1.261-46.051,10.871L8.776,311.995c-11.697,11.697-11.697,30.73,0,42.427l148.8,148.807    c5.847,5.847,13.527,8.771,21.21,8.771c7.686,0,15.374-2.927,21.23-8.783l167.194-167.504    c12.131-12.13,16.297-29.777,10.871-46.051l-10.66-31.984c-6.022-18.067,0.03-38.06,15.063-49.753l101.723-79.117    c17.662-13.736,27.791-34.447,27.791-56.822C511.997,32.293,479.704,0,440.011,0z M178.789,482.015L29.977,333.219    c0.196-0.195,0.583-0.279,53.35-53.046c5.863-5.863,15.349-5.863,21.214,0c5.862,5.862,5.863,15.349,0,21.214    c-17.589,17.589-17.59,46.052,0,63.641c17.545,17.546,46.095,17.547,63.641,0l21.214-21.214c5.864-5.863,15.35-5.863,21.214,0    c5.862,5.862,5.863,15.349,0,21.214l-21.214,21.214c-17.546,17.546-17.546,46.094,0,63.641c3.766,3.766,8.041,6.718,12.604,8.867    L178.789,482.015z M231.824,428.671c-5.849,5.849-15.365,5.849-21.214,0c-5.848-5.849-5.849-15.365,0-21.214l21.214-21.214    c17.588-17.587,17.59-46.053,0-63.641c-17.545-17.547-46.095-17.546-63.641,0l-21.214,21.214c-5.863,5.862-15.35,5.863-21.214,0    c-5.863-5.864-5.863-15.35,0-21.214c17.588-17.587,17.59-46.053,0-63.641c-3.692-3.692-7.914-6.662-12.492-8.842l44.301-44.204    c8.118,8.118,144.592,144.59,148.522,148.521C306.084,354.434,237.941,422.554,231.824,428.671z M465.788,105.126l-101.723,79.117    c-25.055,19.487-35.144,52.811-25.106,82.921l10.66,31.984c1.809,5.424,0.42,11.306-3.623,15.349l-18.71,18.71L178.789,184.712    l18.71-18.71c4.044-4.043,9.924-5.431,15.352-3.623c34.554,11.518,40.731,14.499,55.627,14.499    c22.732-0.002,44.816-10.353,59.277-28.945L406.871,46.21c8.011-10.301,20.091-16.21,33.14-16.21    c23.15,0,41.984,18.834,41.984,41.984C481.996,85.036,476.088,97.114,465.788,105.126z" fill="#757575"/>
	</g>
</g>
<g>
	<g>
		<circle cx="435.003" cy="79.002" r="15" fill="#757575"/>
	</g>
</g>
<g>
</g>
<g>
</g>
<g>
</g>
<g>
</g>
<g>
</g>
<g>
</g>
<g>
</g>
<g>
</g>
<g>
</g>
<g>
</g>
<g>
</g>
<g>
</g>
<g>
</g>
<g>
</g>
<g>
</g>
</svg>
