<?xml version="1.0" encoding="iso-8859-1"?>
<!-- Generator: Adobe Illustrator 19.0.0, SVG Export Plug-In . SVG Version: 6.00 Build 0)  -->
<svg xmlns="http://www.w3.org/2000/svg" xmlns:xlink="http://www.w3.org/1999/xlink" version="1.1" id="Capa_1" x="0px" y="0px" viewBox="0 0 512 512" style="enable-background:new 0 0 512 512;" xml:space="preserve" width="512px" height="512px">
<g>
	<g>
		<g>
			<path d="M497,271h-46c0-16.542-13.458-30-30-30h-30c-16.542,0-30,13.458-30,30h-15c-8.271,0-15-6.729-15-15v-15     c16.542,0,30-13.458,30-30v-30c0-16.542-13.458-30-30-30h-24.261l20.11-61H346c24.813,0,45-20.187,45-45S370.813,0,346,0H166     c-24.813,0-45,20.187-45,45s20.187,45,45,45h19.151l20.11,61H181c-16.542,0-30,13.458-30,30v30c0,16.542,13.458,30,30,30v15     c0,8.271-6.729,15-15,15h-15c0-16.542-13.458-30-30-30H91c-16.542,0-30,13.458-30,30H15c-8.284,0-15,6.716-15,15v121     c0,8.284,6.716,15,15,15h46c0,16.542,13.458,30,30,30h30c14.833,0,27.178-10.823,29.573-24.984     c2.055,2.354,3.445,5.219,4.179,7.889C167.238,480.297,208.873,512,256,512c47.128,0,88.762-31.703,101.248-77.096     c0.734-2.669,2.124-5.534,4.179-7.888C363.822,441.177,376.167,452,391,452h30c16.542,0,30-13.458,30-30h46     c8.284,0,15-6.716,15-15V286C512,277.716,505.284,271,497,271z M61,392H30v-91h31V392z M120.999,422.018     c-0.001,0.011-0.001,0.002,0-0.018c0,0,0,0,0,0H91V271h30v151C121,422.042,121,422.034,120.999,422.018z M166,60     c-8.271,0-15-6.729-15-15s6.729-15,15-15h180c8.271,0,15,6.729,15,15s-6.729,15-15,15C338.854,60,173.151,60,166,60z M295.26,90     l-20.11,61h-38.302l-20.109-61H295.26z M181,181c14.953,0,135.297,0,150,0l0.019,29.999c0,0-0.006,0.001-0.019,0.001     c-5.53,0-144.16,0-150,0V181z M361,393.424c-15.496,4.063-28.002,16.525-32.678,33.524C319.406,459.362,289.666,482,256,482     c-33.666,0-63.406-22.638-72.322-55.052c-4.676-16.999-17.182-29.46-32.678-33.523V301h15c24.813,0,45-20.187,45-45v-15h90v15     c0,24.813,20.187,45,45,45h15V393.424z M421,422.018c0,0.01,0,0.002,0-0.018c0,0,0,0,0,0H391V271h30v151     C421,422.04,421,422.033,421,422.018z M482,392h-31v-91h31V392z" fill="#757575"/>
			<path d="M421,421.982c0-0.01,0-0.002,0,0.018l0,0c0,0,0,0,0,0c0,0.008,0,0.012,0,0.018c0-0.004,0-0.002,0-0.018     C421,421.96,421,421.967,421,421.982z" fill="#757575"/>
			<path d="M120.999,421.982c-0.001-0.011-0.001-0.002,0,0.018l0,0c0,0,0,0,0,0c0,0.008,0,0.012,0,0.018     c0-0.004,0-0.002,0.001-0.018C121,421.959,121,421.966,120.999,421.982z" fill="#757575"/>
		</g>
	</g>
</g>
<g>
</g>
<g>
</g>
<g>
</g>
<g>
</g>
<g>
</g>
<g>
</g>
<g>
</g>
<g>
</g>
<g>
</g>
<g>
</g>
<g>
</g>
<g>
</g>
<g>
</g>
<g>
</g>
<g>
</g>
</svg>
