<?xml version="1.0" encoding="iso-8859-1"?>
<!-- Generator: Adobe Illustrator 19.0.0, SVG Export Plug-In . SVG Version: 6.00 Build 0)  -->
<svg xmlns="http://www.w3.org/2000/svg" xmlns:xlink="http://www.w3.org/1999/xlink" version="1.1" id="Capa_1" x="0px" y="0px" viewBox="0 0 512 512" style="enable-background:new 0 0 512 512;" xml:space="preserve" width="512px" height="512px">
<g>
	<g>
		<path d="M494.437,111.89L404.75,22.203c-17.58-17.58-46.036-17.583-63.618,0c-8.13,8.13-314.68,314.68-327.945,327.945    c-17.581,17.581-17.583,46.036,0,63.619l84.825,84.825c2.812,2.812,6.626,4.393,10.602,4.393h42.412    c8.281,0,14.995-6.714,14.995-14.995V460h26.983c8.281,0,14.995-6.714,14.995-14.995v-26.991h28.99    c8.281,0,14.995-6.714,14.995-14.995v-27.991h26.991c8.281,0,14.995-6.714,14.995-14.995v-25.991h26.991    c8.281,0,14.995-6.714,14.995-14.995v-27.991h27.132c4.009,0,7.851-1.605,10.668-4.458l9.939-10.062l103.193-73.426    C517.051,181.564,520.626,138.078,494.437,111.89z M34.393,392.56c-5.86-5.86-5.861-15.345,0-21.206l212.311-212.312    l42.413,42.413L66.202,424.369L34.393,392.56z M320.961,261.065c-8.281,0-14.995,6.714-14.995,14.995v27.991h-26.991    c-8.281,0-14.995,6.714-14.995,14.995v25.991h-26.991c-8.281,0-14.995,6.714-14.995,14.995v27.991h-28.99    c-8.281,0-14.995,6.714-14.995,14.995v26.991h-26.983c-8.281,0-14.995,6.714-14.995,14.995v27.989h-21.206l-27.418-27.417    l222.914-222.915l38.404,38.404H320.961z M469.479,178.691l-93.901,66.814L267.909,137.836l94.429-94.428    c5.86-5.86,15.344-5.861,21.206,0l89.687,89.687C486.341,146.205,484.511,167.951,469.479,178.691z" fill="#757575"/>
	</g>
</g>
<g>
	<g>
		<path d="M439.511,141.788L383.544,85.82c-5.855-5.856-15.35-5.856-21.206,0l-39.413,39.413c-5.856,5.856-5.856,15.35,0,21.206    l48.895,48.895c5.134,5.135,13.21,5.851,19.167,1.706l46.486-32.341C445.142,159.363,446.106,148.382,439.511,141.788z     M384.155,165.258l-29.421-29.421l18.207-18.207l32.689,32.688L384.155,165.258z" fill="#757575"/>
	</g>
</g>
<g>
</g>
<g>
</g>
<g>
</g>
<g>
</g>
<g>
</g>
<g>
</g>
<g>
</g>
<g>
</g>
<g>
</g>
<g>
</g>
<g>
</g>
<g>
</g>
<g>
</g>
<g>
</g>
<g>
</g>
</svg>
