<?xml version="1.0" encoding="iso-8859-1"?>
<!-- Generator: Adobe Illustrator 19.0.0, SVG Export Plug-In . SVG Version: 6.00 Build 0)  -->
<svg xmlns="http://www.w3.org/2000/svg" xmlns:xlink="http://www.w3.org/1999/xlink" version="1.1" id="Capa_1" x="0px" y="0px" viewBox="0 0 512 512" style="enable-background:new 0 0 512 512;" xml:space="preserve" width="512px" height="512px">
<g>
	<g>
		<path d="M317.056,13.922C308.474,4.944,297.089,0,285,0H45C32.911,0,21.526,4.944,12.944,13.922C4.597,22.653,0,34.046,0,46v421    c0,24.813,20.187,45,45,45h240c24.813,0,45-20.187,45-45V46C330,34.045,325.403,22.653,317.056,13.922z M300,467    c0,8.271-6.729,15-15,15H45c-8.271,0-15-6.729-15-15V46c0-8.523,7.009-16,15-16h240c7.991,0,15,7.477,15,16V467z" fill="#757575"/>
	</g>
</g>
<g>
	<g>
		<path d="M225,61H105c-24.813,0-45,20.187-45,45v60c0,24.813,20.187,45,45,45h120c24.813,0,45-20.187,45-45v-60    C270,81.187,249.813,61,225,61z M240,166c0,8.271-6.729,15-15,15H105c-8.271,0-15-6.729-15-15v-60c0-8.271,6.729-15,15-15h120    c8.271,0,15,6.729,15,15V166z" fill="#757575"/>
	</g>
</g>
<g>
	<g>
		<path d="M225,241H105c-24.813,0-45,20.187-45,45v60c0,24.813,20.187,45,45,45h120c24.813,0,45-20.187,45-45v-60    C270,261.187,249.813,241,225,241z M240,346c0,8.271-6.729,15-15,15H105c-8.271,0-15-6.729-15-15v-60c0-8.271,6.729-15,15-15h120    c8.271,0,15,6.729,15,15V346z" fill="#757575"/>
	</g>
</g>
<g>
	<g>
		<circle cx="135" cy="136" r="15" fill="#757575"/>
	</g>
</g>
<g>
	<g>
		<circle cx="195" cy="136" r="15" fill="#757575"/>
	</g>
</g>
<g>
	<g>
		<circle cx="135" cy="316" r="15" fill="#757575"/>
	</g>
</g>
<g>
	<g>
		<circle cx="195" cy="316" r="15" fill="#757575"/>
	</g>
</g>
<g>
	<g>
		<circle cx="105" cy="436" r="15" fill="#757575"/>
	</g>
</g>
<g>
	<g>
		<circle cx="165" cy="436" r="15" fill="#757575"/>
	</g>
</g>
<g>
	<g>
		<circle cx="225" cy="436" r="15" fill="#757575"/>
	</g>
</g>
<g>
	<g>
		<path d="M407,271c24.813,0,45-20.187,45-45v-16.509c34.192-6.968,60-37.271,60-73.491V76c0-8.284-6.716-15-15-15h-15V15    c0-8.284-6.716-15-15-15s-15,6.716-15,15v46h-30V15c0-8.284-6.716-15-15-15s-15,6.716-15,15v46h-15c-8.284,0-15,6.716-15,15v60    c0,36.219,25.808,66.522,60,73.491V226c0,8.271-6.729,15-15,15c-24.813,0-45,20.187-45,45s20.187,45,45,45h60    c8.271,0,15,6.729,15,15s-6.729,15-15,15h-60c-24.813,0-45,20.187-45,45s20.187,45,45,45h60c7.991,0,15,7.477,15,16    c0,8.271-6.729,15-15,15h-78.75c-8.284,0-15,6.716-15,15s6.716,15,15,15H467c24.813,0,45-20.187,45-45c0-24.867-20.096-46-45-46    h-60c-8.271,0-15-6.729-15-15s6.729-15,15-15h60c24.813,0,45-20.187,45-45s-20.187-45-45-45h-60c-8.271,0-15-6.729-15-15    S398.729,271,407,271z M392,136V91h90v45c0,24.813-20.187,45-45,45S392,160.813,392,136z" fill="#757575"/>
	</g>
</g>
<g>
</g>
<g>
</g>
<g>
</g>
<g>
</g>
<g>
</g>
<g>
</g>
<g>
</g>
<g>
</g>
<g>
</g>
<g>
</g>
<g>
</g>
<g>
</g>
<g>
</g>
<g>
</g>
<g>
</g>
</svg>
