<svg viewBox="0 -37 512 512" xmlns="http://www.w3.org/2000/svg"><path d="m350.25 248.277344v152.230468l-13.207031 26.414063c-1.851563 3.703125-.351563 8.207031 3.355469 10.0625 3.707031 1.855469 8.210937.351563 10.0625-3.355469l13.992187-28.003906c.507813-1.007812.796875-2.144531.796875-3.351562v-153.996094zm0 0" fill="#FFE0B0"/><path d="m425.25 248.277344v152.230468l13.207031 26.414063c1.851563 3.703125.351563 8.207031-3.355469 10.0625-3.707031 1.855469-8.210937.351563-10.0625-3.355469l-13.992187-28.003906c-.507813-1.007812-.796875-2.144531-.796875-3.351562v-153.996094zm0 0" fill="#FFD5A1"/><path d="m86.75 248.277344v152.230468l-13.207031 26.414063c-1.851563 3.703125-.351563 8.207031 3.355469 10.0625 3.707031 1.855469 8.210937.351563 10.0625-3.355469l13.992187-28.003906c.507813-1.007812.796875-2.144531.796875-3.351562v-153.996094zm0 0" fill="#FFE0B0"/><path d="m161.75 248.277344v152.230468l13.207031 26.414063c1.851563 3.703125.351563 8.207031-3.355469 10.0625-3.707031 1.855469-8.210937.351563-10.0625-3.355469l-13.992187-28.003906c-.507813-1.007812-.796875-2.144531-.796875-3.351562v-153.996094zm0 0" fill="#FFD5A1"/><path d="m504.5 75.75c-4.140625 0-7.5 3.355469-7.5 7.5 0 35.429688-28.820312 64.25-64.25 64.25h-45v15h45c43.699219 0 79.25-35.550781 79.25-79.25 0-4.144531-3.359375-7.5-7.5-7.5zm0 0" fill="#FFD5A1"/><path d="m342.753906 147.5c-35.425781 0-64.25-28.820312-64.25-64.25 0-4.144531-3.355468-7.5-7.5-7.5-4.140625 0-7.5 3.355469-7.5 7.5 0 43.699219 35.550782 79.25 79.25 79.25h44.996094v-15zm0 0" fill="#FFE0B0"/><path d="m372.75 200 30 72.429688v26.601562h30c0-8.28125 0-69.03125 0-69.03125zm0 0" fill="#cf301b"/><path d="m342.75 230v69.03125h30v-26.601562c4.691406 1.660156 9.738281 2.570312 15 2.570312s10.308594-.910156 15-2.570312v-72.429688zm0 0" fill="#ff4128"/><path d="m412.75 135h-30l20 95h30v-75c0-11.046875-8.953125-20-20-20zm0 0" fill="#a8e5ff"/><path d="m382.75 135h-20c-11.046875 0-20 8.953125-20 20v75h60v-75c0-11.046875-8.953125-20-20-20zm0 0" fill="#dbf4ff"/><path d="m417.75 8.039062c-3.585938-2.070312-8.175781-.84375-10.246094 2.742188l-18.027344 31.226562 12.992188 7.5 18.027344-31.226562c2.070312-3.585938.839844-8.171875-2.746094-10.242188zm0 0" fill="#40211D"/><path d="m387.75 0c-4.140625 0-7.5 3.359375-7.5 7.5v24.511719l-12.253906-21.226563c-2.070313-3.589844-6.660156-4.816406-10.246094-2.746094-3.585938 2.070313-4.816406 6.65625-2.746094 10.246094l24.25 42h15.996094v-52.785156c0-4.140625-3.359375-7.5-7.5-7.5zm0 0" fill="#60321C"/><path d="m387.75 15v90c24.851562 0 45-20.148438 45-45s-20.148438-45-45-45zm0 0" fill="#FFD5A1"/><path d="m402.75 60c0-24.851562-6.714844-45-15-45-24.851562 0-45 20.148438-45 45s20.148438 45 45 45c8.285156 0 15-20.148438 15-45zm0 0" fill="#FFE0B0"/><path d="m79.25 147.492188c-35.429688 0-64.25-28.820313-64.25-64.25 0-4.144532-3.359375-7.5-7.5-7.5s-7.5 3.355468-7.5 7.5c0 43.699218 35.550781 79.25 79.25 79.25h44.996094v-15zm0 0" fill="#FFE0B0"/><path d="m240.996094 75.742188c-4.144532 0-7.5 3.355468-7.5 7.5 0 35.429687-28.824219 64.25-64.25 64.25h-45v15h45c43.699218 0 79.25-35.550782 79.25-79.25 0-4.140626-3.359375-7.5-7.5-7.5zm0 0" fill="#FFD5A1"/><path d="m109.25 199.992188 30 72.429687v26.601563h30c0-8.28125 0-69.03125 0-69.03125zm0 0" fill="#cf301b"/><path d="m79.25 229.992188v69.03125h30v-26.601563c4.691406 1.660156 9.738281 2.570313 15 2.570313s10.308594-.910157 15-2.570313v-72.429687zm0 0" fill="#ff4128"/><path d="m149.25 134.992188h-30l20 95h30v-75c0-11.046876-8.953125-20-20-20zm0 0" fill="#a8e5ff"/><path d="m119.25 134.992188h-20c-11.046875 0-20 8.953124-20 20v75h60v-75c0-11.046876-8.953125-20-20-20zm0 0" fill="#dbf4ff"/><path d="m124.246094 24.992188v80c24.855468 0 45-20.148438 45-45 0-5.261719-.910156-10.308594-2.570313-15zm0 0" fill="#FFD5A1"/><path d="m124.246094 14.992188 14.144531 30h28.285156c-6.179687-17.476563-22.835937-30-42.429687-30zm0 0" fill="#40211D"/><path d="m81.816406 44.992188c-1.65625 4.691406-2.570312 9.738281-2.570312 15 0 24.851562 20.148437 45 45 45 8.285156 0 15-20.148438 15-45 0-5.261719-.304688-10.308594-.855469-15l-14.144531-20zm0 0" fill="#FFE0B0"/><path d="m124.246094 14.992188c-19.589844 0-36.25 12.523437-42.429688 30h56.574219c-2.058594-17.476563-7.613281-30-14.144531-30zm0 0" fill="#60312c"/><path d="m178.695312 83.84375-9.449218-23.851562h25.65625c3.421875-.023438 6.886718.953124 9.933594 3.023437 7.992187 5.433594 10.070312 16.316406 4.636718 24.308594-5.433594 7.996093-16.316406 10.074219-24.308594 4.640625-3.046874-2.070313-5.230468-4.929688-6.46875-8.121094zm0 0" fill="#40211d"/><path d="m69.800781 83.84375 9.449219-23.851562h-25.65625c-3.421875-.023438-6.886719.953124-9.929688 3.023437-7.996093 5.433594-10.070312 16.316406-4.640624 24.308594 5.433593 7.996093 16.316406 10.074219 24.3125 4.640625 3.042968-2.070313 5.226562-4.929688 6.464843-8.121094zm0 0" fill="#60312c"/></svg>