<svg height="512pt" viewBox="-31 0 512 512" width="512pt" xmlns="http://www.w3.org/2000/svg"><path d="m150 331c0-33.085938-26.914062-60-60-60s-60 26.914062-60 60 26.914062 60 60 60 60-26.914062 60-60zm-60 30c-16.542969 0-30-13.457031-30-30s13.457031-30 30-30 30 13.457031 30 30-13.457031 30-30 30zm0 0"/><path d="m0 482v30h180v-30c0-49.914062-40.421875-91-90-91-49.550781 0-90 41.050781-90 91zm90-61c33.085938 0 60 27.363281 60 61h-120c0-33.636719 26.914062-61 60-61zm0 0"/><path d="m285 331c90.980469 0 165-74.019531 165-165 0-91.53125-74.019531-166-165-166s-165 74.46875-165 166c0 90.980469 74.019531 165 165 165zm0-301c74.4375 0 135 61.007812 135 136 0 74.4375-60.5625 135-135 135s-135-60.5625-135-135c0-74.992188 60.5625-136 135-136zm0 0"/><path d="m390 151h-90v-91h-30v121h120zm0 0"/></svg>